<?xml version="1.0" encoding="UTF-8"?>
<svg xmlns="http://www.w3.org/2000/svg" viewBox="0 0 100 100">
  <!-- Teal circle background -->
  <circle cx="50" cy="50" r="50" fill="#00847e"/>
  
  <!-- Icon representing a nurse avatar, styled like the footcare clinic branding -->
  <g fill="white">
    <!-- Simple avatar representation -->
    <circle cx="50" cy="38" r="15"/> <!-- Head -->
    <path d="M50,53 C37,53 26,63 25,78 L75,78 C74,63 63,53 50,53"/> <!-- Body -->
    
    <!-- Stethoscope design -->
    <path d="M42,56 C42,56 35,62 35,68 C35,71 37,73 40,73 C43,73 45,71 45,68 C45,66 44,63 42,61 L42,56" fill="#00847e" stroke="white" stroke-width="2"/>
    
    <!-- Name label -->
    <rect x="38" y="30" width="24" height="6" fill="white"/>
    <text x="50" y="35" font-family="Arial, sans-serif" font-size="5" font-weight="bold" text-anchor="middle" fill="#00847e">FIONA</text>
    
    <!-- Small foot icon as a nod to FootCare Clinic -->
    <path d="M56,65 C59,65 61,63 61,61 C61,58 57,54 56,52 C55,54 51,58 51,61 C51,63 53,65 56,65" fill="#fa8e30"/>
  </g>
</svg>